<?xml version="1.0" encoding="UTF-8" standalone="no"?>
<!-- Created with Inkscape (http://www.inkscape.org/) -->

<svg
   width="223.41818mm"
   height="226.34193mm"
   viewBox="0 0 223.41818 226.34193"
   version="1.1"
   id="svg5"
   inkscape:version="1.1.2 (0a00cf5339, 2022-02-04)"
   sodipodi:docname="z2m.svg"
   xmlns:inkscape="http://www.inkscape.org/namespaces/inkscape"
   xmlns:sodipodi="http://sodipodi.sourceforge.net/DTD/sodipodi-0.dtd"
   xmlns="http://www.w3.org/2000/svg"
   xmlns:svg="http://www.w3.org/2000/svg">
  <sodipodi:namedview
     id="namedview7"
     pagecolor="#ffffff"
     bordercolor="#666666"
     borderopacity="1.0"
     inkscape:pageshadow="2"
     inkscape:pageopacity="0"
     inkscape:pagecheckerboard="true"
     inkscape:document-units="mm"
     showgrid="false"
     inkscape:snap-bbox="false"
     inkscape:snap-bbox-midpoints="true"
     inkscape:snap-global="false"
     fit-margin-top="0"
     fit-margin-left="0"
     fit-margin-right="0"
     fit-margin-bottom="0"
     inkscape:zoom="0.64943182"
     inkscape:cx="408.8189"
     inkscape:cy="441.15486"
     inkscape:window-width="1920"
     inkscape:window-height="1008"
     inkscape:window-x="1920"
     inkscape:window-y="0"
     inkscape:window-maximized="1"
     inkscape:current-layer="layer1" />
  <defs
     id="defs2" />
  <g
     inkscape:label="Layer 1"
     inkscape:groupmode="layer"
     id="layer1"
     transform="translate(2.9389881,-14.467253)">
    <g
       id="g10438">
      <path
         style="fill:#000000;stroke-width:0.0515059"
         d="m 187.74172,207.64332 32.73747,-33.16587 V 127.61233 80.747212 L 187.76732,47.607234 155.05546,14.467253 H 108.77015 62.484815 L 29.772919,47.607202 -2.9389881,80.74715 v 46.8651 46.86513 l 32.7374541,33.16591 32.737453,33.1659 h 46.234161 46.23415 z"
         id="path3424" />
      <path
         style="fill:#000000;stroke-width:0.0475129"
         d="M 33.402605,203.23175 2.1984415,171.92744 V 127.65072 83.374011 l 31.2204145,-31.319 31.220433,-31.319002 h 44.133291 44.13329 l 31.21796,31.314509 31.21793,31.314508 -0.003,44.290554 -0.003,44.29055 -31.20138,31.29715 -31.20137,31.29716 -44.16333,-0.002 -44.163334,-0.002 -31.204163,-31.30432 z"
         id="path1082" />
      <path
         style="fill:#fdbe36;stroke:none;stroke-width:0.0475878;stroke-miterlimit:4;stroke-dasharray:none"
         d="M 33.377195,203.23985 2.1751845,171.94193 2.1730296,127.64761 2.1708747,83.353299 33.37504,52.046611 64.579203,20.739923 l 44.163337,-0.002 44.16333,-0.002 31.20106,31.297094 31.20105,31.297092 0.002,44.305871 0.002,44.30587 -31.20146,31.29919 -31.20143,31.29919 -44.16466,-0.001 -44.164665,-0.001 -31.20217,-31.29794 z"
         id="path1084" />
      <path
         style="fill:#000000;stroke-width:0.0475129"
         d="m 69.833204,92.972093 c -1.323444,-0.05003 -3.163207,-0.230381 -4.323686,-0.42385 -5.384733,-0.897686 -9.12528,-2.92327 -11.223939,-6.078 -0.57874,-0.869978 -1.088899,-1.986367 -1.302703,-2.85078 -0.126584,-0.511839 -0.152263,-1.587657 -0.0482,-2.019303 0.250976,-1.040858 0.645344,-1.787168 1.4311,-2.708241 2.13057,-2.497469 6.617671,-4.867421 13.519396,-7.140534 5.102618,-1.680577 10.121446,-2.98526 21.875998,-5.686831 5.024771,-1.154854 7.827604,-1.837941 9.785404,-2.384815 l 0.872976,-0.243851 0.14539,-0.337318 c 0.22025,-0.510975 0.93392,-1.899494 1.21814,-2.370004 0.14053,-0.232635 0.35317,-0.505934 0.4806,-0.61767 l 0.22853,-0.200419 -0.2117,-0.623 c -1.54891,-4.557858 0.35401,-9.691923 4.37732,-11.809985 0.34579,-0.182043 0.447,-0.256953 0.42824,-0.316955 -0.0135,-0.04321 -0.57106,-1.980544 -1.23899,-4.305179 -0.66794,-2.324637 -1.22023,-4.232402 -1.2273,-4.239479 -0.007,-0.0071 -1.653,-0.07533 -3.65762,-0.151671 -3.963834,-0.150952 -3.803544,-0.13356 -3.924596,-0.42581 -0.04926,-0.118927 -0.04621,-0.169021 0.01862,-0.305636 0.04263,-0.08987 0.127571,-0.190181 0.188753,-0.222918 0.169574,-0.09075 7.771763,0.193835 7.928923,0.296819 0.0744,0.04872 0.78012,1.447744 2.21379,4.388334 l 2.10462,4.316814 h 1.10064 1.10066 l 2.09728,-4.299927 c 1.4227,-2.916846 2.13495,-4.328179 2.2144,-4.387766 0.10738,-0.08057 0.41365,-0.09915 3.69858,-0.224392 4.47049,-0.170449 4.13242,-0.169183 4.31431,-0.01614 0.19347,0.162801 0.20429,0.423602 0.025,0.602902 -0.15363,0.153622 -0.0295,0.144868 -4.17372,0.294288 -1.80037,0.06491 -3.28367,0.128288 -3.29621,0.140837 -0.0179,0.0179 -2.35477,8.096762 -2.46355,8.516906 -0.0234,0.09045 0.0187,0.127054 0.32194,0.279594 0.19191,0.09654 0.52756,0.293078 0.74593,0.436756 3.68144,2.422461 5.22794,7.285017 3.68759,11.594727 l -0.16419,0.459379 0.25911,0.238316 c 0.31115,0.286166 0.88224,1.225047 1.45994,2.400151 0.21199,0.431182 0.39096,0.790983 0.39773,0.799555 0.0179,0.02275 1.78298,0.493317 2.96651,0.790891 1.64494,0.413582 4.60295,1.109343 8.3764,1.97024 12.86069,2.934113 19.90153,4.913368 25.31033,7.115005 5.26991,2.145109 8.59587,4.476831 9.75994,6.842405 0.39462,0.801934 0.52526,1.354591 0.52001,2.199799 -0.006,0.967883 -0.19182,1.6343 -0.79495,2.85078 -1.69962,3.428077 -5.21277,5.77034 -10.33841,6.892735 -1.23586,0.270624 -2.61137,0.470873 -4.278,0.622791 -1.09035,0.09939 -5.31858,0.08407 -6.53303,-0.02366 -5.25756,-0.466402 -9.81391,-1.596722 -11.86466,-2.94334 -0.87006,-0.571339 -5.49808,-4.528378 -8.37588,-7.161558 -1.09318,-1.000253 -4.52519,-4.424986 -5.17821,-5.167219 -0.25864,-0.293987 -0.48221,-0.534507 -0.49681,-0.534493 -0.0145,1.5e-5 -0.10831,0.197786 -0.20824,0.439495 -0.35797,0.865811 -0.35032,0.855338 -0.67354,0.923529 -2.91503,0.615008 -5.62831,0.880179 -9.05122,0.884584 -2.45456,0.0032 -4.11364,-0.09574 -6.24796,-0.372451 -0.93602,-0.121357 -1.91123,-0.278378 -1.94623,-0.313371 -0.0111,-0.01106 -0.19779,-0.376337 -0.41493,-0.811717 l -0.39482,-0.791596 -0.44449,0.507757 c -2.384134,2.723465 -6.573012,6.651787 -11.386799,10.678504 -2.224974,1.861189 -2.640227,2.156772 -3.64573,2.595075 -3.737099,1.629012 -10.217699,2.636045 -15.643771,2.430908 z"
         id="path3444" />
      <path
         style="fill:#000000;stroke-width:0.0475129"
         d="m 109.43526,97.327237 c -4.08911,-0.209038 -7.68856,-0.808386 -10.748635,-1.789767 -0.763848,-0.244973 -0.84033,-0.279263 -0.822121,-0.368701 0.01113,-0.05424 0.04462,-0.355184 0.07461,-0.668769 0.06298,-0.658426 0.24259,-1.90434 0.383593,-2.660728 0.159141,-0.853671 0.429871,-2.087783 0.466738,-2.127666 0.01887,-0.0204 0.363984,0.04817 0.766936,0.152384 3.224399,0.83391 6.984909,1.33417 10.686599,1.421622 4.34196,0.102576 8.18067,-0.273138 11.60227,-1.135575 0.30551,-0.07701 0.58506,-0.140016 0.62121,-0.140016 0.0981,0 0.47791,1.85008 0.67799,3.302154 0.12375,0.898043 0.25507,2.277483 0.22013,2.312091 -0.0437,0.04328 -1.27958,0.430017 -2.01114,0.629334 -1.67123,0.455336 -4.07589,0.831397 -6.43044,1.005646 -1.13441,0.08396 -4.38717,0.124256 -5.48774,0.06799 z"
         id="path3442" />
      <path
         style="fill:#000000;stroke-width:0.0475129"
         d="m 109.51296,116.85183 c -0.7261,-0.10072 -1.62374,-0.39742 -2.26328,-0.7481 -0.3332,-0.18271 -1.56449,-1.00584 -2.13018,-1.42405 -1.22264,-0.90389 -2.4162,-2.056 -3.40716,-3.28881 -0.40433,-0.50302 -1.26808,-1.74287 -1.42334,-2.04311 l -0.0659,-0.12739 0.79316,0.18106 c 4.9248,1.12419 10.87918,1.43198 15.92604,0.82325 0.86628,-0.10449 2.07632,-0.29434 2.74859,-0.43123 0.32269,-0.0657 0.59506,-0.11115 0.60524,-0.10097 0.0204,0.0204 -0.50052,0.79777 -0.83559,1.24702 -0.66522,0.89193 -1.89234,2.1989 -2.73204,2.90987 -0.94871,0.80326 -2.62301,1.97868 -3.30087,2.31734 -0.55292,0.27623 -1.12753,0.48329 -1.6432,0.5921 -0.54703,0.11544 -1.75362,0.16485 -2.2715,0.093 z"
         id="path3440" />
      <path
         style="fill:#000000;stroke-width:0.0475129"
         d="m 120.05095,164.22455 c -0.32389,-0.0461 -0.56561,-0.16756 -0.72973,-0.36666 -0.2988,-0.36251 -0.25916,0.82053 -0.57581,-17.18862 -0.15943,-9.06785 -0.28023,-16.71151 -0.26843,-16.98589 0.0306,-0.71257 0.18123,-0.99101 0.65096,-1.20347 0.18868,-0.0853 0.35623,-0.10095 1.42539,-0.13275 0.66636,-0.0198 2.21648,-0.0426 3.4447,-0.0507 2.06617,-0.0136 2.24726,-0.008 2.4225,0.0707 0.43693,0.19704 0.59063,0.47468 0.64894,1.1722 0.0684,0.81798 0.60566,33.29672 0.55606,33.61303 -0.0522,0.33258 -0.14332,0.51946 -0.34217,0.70152 -0.28762,0.26331 -0.43861,0.28189 -2.64392,0.32527 -3.75917,0.0739 -4.34694,0.0798 -4.58849,0.0454 z"
         id="path3438" />
      <path
         style="fill:#000000;stroke-width:0.0475129"
         d="m 97.068489,164.60353 c -0.576369,-0.14357 -0.824975,-0.51266 -0.869133,-1.2903 -0.01383,-0.24312 -0.152946,-7.85804 -0.309214,-16.92205 -0.261643,-15.17606 -0.278254,-16.50292 -0.209996,-16.7694 0.144487,-0.56399 0.426099,-0.7736 1.133506,-0.84366 0.64222,-0.0636 6.188158,-0.14182 6.455368,-0.091 0.55193,0.10489 0.84471,0.41436 0.93464,0.98786 0.0747,0.47603 0.63594,33.70918 0.57379,33.97333 -0.0635,0.2697 -0.14894,0.42874 -0.31559,0.58708 -0.26396,0.25079 -0.45293,0.28442 -1.82093,0.32397 -2.28876,0.0662 -5.38561,0.0908 -5.572441,0.0442 z"
         id="path3436" />
      <path
         style="fill:#000000;stroke-width:0.0475129"
         d="m 148.09304,208.53303 c -0.26763,-0.0963 -0.49535,-0.33895 -0.5774,-0.61521 -0.0605,-0.20389 -0.07,-1.4563 -0.07,-9.30197 v -9.06636 h -2.8184 c -2.44871,0 -2.85208,-0.01 -3.07515,-0.0762 -0.30745,-0.0913 -0.57755,-0.33983 -0.66702,-0.61375 -0.0794,-0.24299 -0.1218,-4.81547 -0.0491,-5.28281 0.0658,-0.4225 0.18342,-0.62772 0.45728,-0.79779 l 0.22951,-0.14254 10.02229,-0.0123 c 6.61819,-0.008 10.08262,0.004 10.19997,0.0355 0.2849,0.0767 0.4915,0.24325 0.61967,0.49949 l 0.11877,0.2375 0.0147,2.54194 c 0.0167,2.87004 0.006,2.98605 -0.3011,3.28636 -0.31266,0.3057 -0.23083,0.29794 -3.41968,0.32436 l -2.89828,0.024 -0.0238,9.17001 -0.0237,9.17 -0.11827,0.2066 c -0.0729,0.12726 -0.20057,0.25497 -0.3326,0.33259 l -0.21432,0.126 -3.4447,0.0104 c -2.84607,0.009 -3.47667,-0.001 -3.62881,-0.0558 z"
         id="path3434" />
      <path
         style="fill:#000000;stroke-width:0.0475129"
         d="m 124.33202,208.52703 c -0.22926,-0.0847 -0.43353,-0.272 -0.53982,-0.49503 -0.073,-0.1532 -0.0802,-0.88761 -0.0917,-9.32443 l -0.0126,-9.15813 h -2.81779 c -3.10156,0 -3.14903,-0.004 -3.47318,-0.28854 -0.3229,-0.28352 -0.328,-0.32559 -0.34849,-2.88302 -0.0115,-1.43533 0,-2.44581 0.0318,-2.70239 0.0614,-0.50183 0.19445,-0.75346 0.48694,-0.92091 l 0.20659,-0.11828 10.02345,-0.0123 c 11.12831,-0.0137 10.37041,-0.0348 10.66215,0.29747 0.29054,0.33089 0.29675,0.40285 0.28145,3.26151 l -0.0138,2.58251 -0.11248,0.22643 c -0.0619,0.12453 -0.16877,0.26455 -0.23757,0.31115 -0.33817,0.22907 -0.23619,0.22182 -3.32033,0.23624 l -2.91017,0.0136 -0.002,8.87132 c 0,5.63632 -0.0182,8.99075 -0.0483,9.19881 -0.0612,0.42307 -0.20202,0.6701 -0.47291,0.82937 l -0.21433,0.126 -3.44469,0.009 c -2.92582,0.008 -3.4731,-0.001 -3.63332,-0.0605 z"
         id="path3432" />
      <path
         style="fill:#000000;stroke-width:0.0475129"
         d="m 61.948153,208.52757 c -0.232426,-0.0859 -0.3846,-0.22459 -0.517504,-0.47156 L 61.32838,207.86596 V 195.6076 183.34925 l 0.104819,-0.19595 c 0.145888,-0.27272 0.350085,-0.42914 0.642956,-0.49249 0.177386,-0.0384 1.21577,-0.0497 3.575893,-0.0392 l 3.325922,0.0149 0.213804,0.11097 c 0.249899,0.12969 0.525118,0.38129 0.710208,0.64924 0.07219,0.10453 0.885744,1.55843 1.807871,3.23089 0.922126,1.67245 1.732753,3.12635 1.801387,3.23088 0.177979,0.27108 0.387742,0.36783 0.735888,0.33943 0.227092,-0.0185 0.305801,-0.0484 0.414642,-0.15739 0.0739,-0.074 0.917116,-1.56704 1.873847,-3.3179 0.956731,-1.75085 1.822847,-3.2943 1.924703,-3.42988 0.227955,-0.30344 0.440412,-0.46916 0.754402,-0.58846 0.229445,-0.0872 0.398175,-0.0915 3.557648,-0.0915 3.625025,0 3.66024,0.002 3.912563,0.27208 0.06783,0.0725 0.163163,0.20661 0.211883,0.29807 0.08576,0.16103 0.08857,0.55519 0.08857,12.42465 0,11.86946 -0.0029,12.26363 -0.08857,12.42465 -0.140196,0.26324 -0.313092,0.41925 -0.552845,0.49889 -0.193925,0.0644 -0.639114,0.0721 -3.496412,0.0607 l -3.274204,-0.0131 -0.204269,-0.11698 c -0.208812,-0.11957 -0.352222,-0.30477 -0.450755,-0.58216 -0.04076,-0.11475 -0.06204,-1.89002 -0.08031,-6.70164 l -0.02487,-6.54553 -0.995286,1.84175 c -1.226797,2.27014 -1.279305,2.36032 -1.530982,2.62942 -0.470059,0.50257 -0.804665,0.58046 -2.391333,0.55666 -1.415854,-0.0212 -1.553823,-0.0577 -2.019286,-0.53428 -0.251712,-0.25769 -0.418575,-0.5391 -1.42539,-2.40396 l -1.140312,-2.11211 -0.02376,6.58055 c -0.02534,7.01706 -0.01437,6.70836 -0.248839,7.04488 -0.05048,0.0725 -0.180834,0.17936 -0.289693,0.23756 l -0.19793,0.10584 -3.207132,0.009 c -2.713099,0.008 -3.236062,-0.001 -3.395059,-0.0603 z"
         id="path3430" />
      <path
         id="path3426"
         style="fill:#000000;stroke-width:0.0475128"
         d="m 102.61441,182.05452 c -1.61231,0.0131 -3.204024,0.13089 -4.391982,0.34985 -2.270265,0.41843 -3.79295,1.09791 -4.875672,2.17609 -0.934913,0.93099 -1.386652,1.93991 -1.639692,3.66283 -0.0765,0.52087 -0.116208,12.38207 -0.04548,13.58831 0.06363,1.08556 0.163942,1.62382 0.457854,2.45619 0.247922,0.70218 0.763156,1.56506 1.249018,2.09186 0.8967,0.9722 2.67978,1.75977 4.758884,2.1022 0.248245,0.0409 0.499832,0.0855 0.558622,0.0987 l 0.106453,0.0238 v 1.17512 c 1.4e-4,0.64627 0.0218,1.25219 0.04806,1.34669 0.10006,0.36017 0.369093,0.62263 0.728122,0.71003 h 5.3e-4 c 0.08257,0.0198 1.604213,0.0329 3.381193,0.0289 3.20483,-0.008 3.23195,-0.009 3.42046,-0.11007 0.21736,-0.11648 0.30849,-0.20942 0.43408,-0.44442 0.0792,-0.14819 0.0908,-0.30458 0.10439,-1.43712 0.0152,-1.26141 0.0157,-1.27113 0.11834,-1.29243 0.0569,-0.0118 0.31745,-0.0556 0.57877,-0.0971 2.27583,-0.3626 4.17979,-1.29661 5.16248,-2.53214 0.65147,-0.81909 0.96899,-1.57172 1.21388,-2.87993 0.0733,-0.39173 0.0825,-1.07427 0.0987,-7.22695 0.019,-7.21176 0.0134,-7.44033 -0.20464,-8.43308 -0.22439,-1.02152 -0.54499,-1.72556 -1.10794,-2.43396 -1.03903,-1.30752 -3.01684,-2.23555 -5.6379,-2.64583 -1.2715,-0.19902 -2.90421,-0.29057 -4.51652,-0.2775 z m 0.0465,7.0745 c 0.17672,-5.3e-4 0.36651,0.002 0.57206,0.008 1.65967,0.0479 2.21732,0.2759 2.57245,1.05161 l 0.11575,0.25167 -0.0129,5.36298 -0.0129,5.36298 -0.12609,0.23977 c -0.27448,0.52 -0.71622,0.77613 -1.5565,0.90279 -0.57132,0.0862 -2.15203,0.0843 -2.71249,-0.003 -0.82501,-0.12869 -1.25048,-0.39404 -1.50017,-0.93483 l -0.138493,-0.29972 v -5.3449 -5.34541 l 0.118857,-0.23409 c 0.06533,-0.12875 0.216846,-0.33527 0.336926,-0.45889 0.18062,-0.18594 0.28329,-0.24546 0.59583,-0.34416 0.464,-0.1466 0.98188,-0.21242 1.7477,-0.21498 z" />
      <path
         style="fill:#ffffff;stroke-width:0.0475129"
         d="m 114.36717,87.853881 c 2.63461,-0.163745 4.36298,-0.407657 6.44989,-0.910246 0.54049,-0.13016 0.89087,-0.236908 0.89087,-0.271417 0,-0.08104 -0.46633,-1.455024 -0.75658,-2.229149 -0.4229,-1.127977 -1.27647,-3.122996 -1.38522,-3.237649 -0.0258,-0.02719 -0.15653,-0.0222 -0.33981,0.01296 -2.29063,0.439563 -4.40245,0.696156 -6.71216,0.815552 -1.17623,0.0608 -4.08491,0.06019 -5.20266,-0.0011 -1.74122,-0.09546 -3.86518,-0.315728 -5.22644,-0.542005 -0.22212,-0.03692 -0.42064,-0.05104 -0.44115,-0.03137 -0.20231,0.194052 -2.005871,4.842262 -1.914358,4.933778 0.07433,0.07433 2.043398,0.540179 3.139468,0.742747 2.08226,0.384822 4.73583,0.684338 6.69934,0.756169 1.23597,0.04521 3.78214,0.0249 4.79881,-0.03829 z"
         id="path2006" />
      <path
         style="fill:#ffffff;stroke-width:0.0475129"
         d="m 115.07097,106.60404 c 2.74788,-0.19985 4.97353,-0.57842 6.83872,-1.16324 l 0.59392,-0.18621 0.15384,-0.51247 c 0.29763,-0.99135 0.5552,-2.15233 0.69877,-3.14944 0.089,-0.61826 0.21643,-1.93391 0.21643,-2.234848 v -0.224038 l -0.55827,0.162533 c -6.95301,2.024243 -17.00466,1.877403 -24.523462,-0.358243 l -0.636294,-0.189196 0.03207,0.602293 c 0.07702,1.445939 0.305298,2.980299 0.651594,4.379579 0.287269,1.16079 0.186993,1.03645 1.046124,1.2973 3.148698,0.95602 6.842808,1.52496 10.827128,1.66753 0.90557,0.0324 3.71367,-0.0228 4.65943,-0.0915 z"
         id="path2004" />
    </g>
  </g>
</svg>
