<?xml version="1.0" encoding="UTF-8" standalone="no"?>
<!-- Created with Inkscape (http://www.inkscape.org/) -->

<svg
   width="1322.9166mm"
   height="1322.9166mm"
   viewBox="0 0 1322.9166 1322.9166"
   version="1.1"
   id="svg5"
   inkscape:version="1.1.2 (0a00cf5339, 2022-02-04)"
   sodipodi:docname="logo_vector.svg"
   xmlns:inkscape="http://www.inkscape.org/namespaces/inkscape"
   xmlns:sodipodi="http://sodipodi.sourceforge.net/DTD/sodipodi-0.dtd"
   xmlns="http://www.w3.org/2000/svg"
   xmlns:svg="http://www.w3.org/2000/svg">

  <g
     inkscape:label="Layer 1"
     inkscape:groupmode="layer"
     id="layer1"
     transform="translate(2395.5935,912.90546)">
    <g
       id="g9724"
       transform="matrix(0.99985825,0,0,0.99985825,-162.74705,-401.70841)">
      <path
         style="fill:#000000;stroke-width:0.264583"
         d="m -1991.2473,571.19323 -173.8563,-174.3947 0.01,-246.49135 V -96.18417 l 173.8764,-174.42656 173.8764,-174.42655 h 245.718 245.718 l 173.8608,174.42355 173.86079,174.42355 v 246.52069 246.5207 l -173.77739,174.30209 -173.7774,174.30207 -245.8267,0.0663 -245.8266,0.0663 z"
         id="path1240" />
      <path
         style="fill:#fdbe36;stroke-width:0.264583"
         d="M -1982.0782,558.59332 -2151.0807,389.59064 V 150.27503 -89.040582 l 169.135,-169.134808 169.135,-169.13481 h 239.1835 239.1835 l 169.1346,169.13538 169.13462,169.135376 V 150.14345 389.32638 l -169.13502,169.13481 -169.1349,169.1348 h -239.3156 -239.3156 z"
         id="path1244" />
      <path
         style="fill:#000000;stroke-width:0.264583"
         d="m -1788.7338,-42.787951 c -3.8795,-0.138245 -12.9129,-0.88609 -17.1979,-1.423803 -38.9168,-4.883387 -64.6789,-20.498354 -74.5106,-45.162494 -1.9292,-4.839731 -2.4635,-7.459982 -2.4408,-11.969302 0.015,-2.95232 0.1359,-4.0173 0.6972,-6.13986 5.0327,-19.02865 31.637,-36.32849 81.4499,-52.96403 28.0629,-9.37191 57.298,-16.98657 124.5824,-32.44911 27.8517,-6.40058 42.9882,-10.10187 54.2658,-13.26946 l 3.8626,-1.08492 0.9979,-2.3567 c 2.729,-6.44467 7.2038,-14.32218 9.14,-16.09008 l 1.304,-1.19062 -1.1627,-3.43959 c -4.317,-12.7709 -3.9935,-26.54796 0.9161,-39.00593 4.6635,-11.83346 13.6036,-21.85308 24.3299,-27.26769 0.878,-0.44322 1.5964,-0.84457 1.5964,-0.89188 0,-0.20888 -13.745,-47.87076 -13.8296,-47.95541 -0.052,-0.052 -8.1833,-0.39373 -18.0695,-0.75935 -23.2018,-0.85806 -22.6722,-0.8219 -23.5181,-1.60581 -1.2897,-1.19528 -0.6831,-3.54751 1.0254,-3.97633 1.0798,-0.271 42.8922,1.38969 43.5257,1.72875 0.3487,0.18661 1.2713,1.7549 2.3882,4.0595 1.0011,2.06547 6.2912,12.91555 11.7558,24.11129 l 9.9358,20.35588 6.1989,0.017 6.1989,0.017 11.7246,-24.04179 c 7.8871,-16.17277 11.921,-24.17046 12.3245,-24.43489 0.4892,-0.32052 4.301,-0.53347 20.6473,-1.15346 25.1802,-0.95506 22.9486,-0.9551 23.9041,5.3e-4 1.1144,1.11444 0.9526,2.89027 -0.3368,3.69552 -0.3994,0.24943 -5.9115,0.54249 -20.7996,1.10586 -11.1408,0.42158 -20.3341,0.85776 -20.4294,0.9693 -0.1664,0.19479 -13.7525,47.38203 -13.7525,47.76535 0,0.10292 0.7442,0.56049 1.6537,1.01684 9.1094,4.57068 17.4722,13.17963 22.2879,22.94379 4.0541,8.22022 5.7875,15.75028 5.7966,25.18202 0.01,7.25868 -1.0664,13.53362 -3.3104,19.35244 l -0.8388,2.17514 1.3615,1.20862 c 1.6753,1.48717 4.6434,6.34452 8.0114,13.11111 1.3027,2.61733 2.512,4.83621 2.6873,4.93085 0.47,0.2539 9.3226,2.59744 17.781,4.7072 8.9367,2.22904 20.0203,4.83918 41.6719,9.81353 61.8611,14.21225 91.5309,21.97907 119.3836,31.25155 49.952,16.62959 76.5854,33.96189 81.6234,53.11809 0.5546,2.109 0.6704,3.15693 0.6758,6.11688 0.01,5.26478 -0.9505,8.846261 -4.1565,15.506776 -5.9764,12.416075 -16.1573,22.311147 -30.3096,29.45868 -5.0608,2.555902 -7.5732,3.599736 -13.4938,5.606283 -10.9146,3.699086 -21.8554,5.889466 -36.2479,7.257017 -5.9631,0.566579 -24.7214,0.806662 -31.6307,0.404813 -27.4771,-1.598083 -53.5049,-7.132822 -68.2495,-14.51311 -4.0549,-2.029645 -4.9339,-2.632233 -10.3255,-7.078873 -28.592,-23.580671 -53.6594,-46.647416 -68.5011,-63.033776 -1.8782,-2.07367 -3.4877,-3.77031 -3.5767,-3.77031 -0.089,0 -0.7984,1.49476 -1.5766,3.32174 -0.7782,1.82694 -1.5725,3.47932 -1.7651,3.67196 -0.6891,0.68903 -13.6456,2.94968 -22.8665,3.98971 -22.7723,2.56852 -46.7622,2.10132 -69.7177,-1.35774 -3.7716,-0.56835 -4.5792,-0.77001 -5.0017,-1.24912 -0.2771,-0.31425 -1.3933,-2.39858 -2.4805,-4.6319 -1.8969,-3.89652 -1.9953,-4.0408 -2.4373,-3.57188 -0.2533,0.26879 -1.9294,2.15556 -3.7246,4.19285 -4.1841,4.74843 -21.2891,21.87329 -28.1667,28.19943 -17.4237,16.026707 -43.1012,37.88756 -47.8952,40.776175 -11.3364,6.830695 -34.4994,12.921588 -58.5929,15.407507 -11.7902,1.216475 -24.0941,1.673463 -34.7927,1.292278 z"
         id="path1867" />
      <path
         style="fill:#000000;stroke-width:0.264583"
         d="m -1567.753,-18.522301 c -23.2773,-1.206685 -43.1531,-4.540911 -60.3126,-10.11756 l -4.1672,-1.354296 v -0.856747 c 0,-2.282058 1.2439,-11.61796 2.3947,-17.972854 0.7786,-4.30022 2.4235,-11.874949 2.6305,-12.114397 0.099,-0.114459 1.7175,0.2082 3.5967,0.717047 14.4453,3.911653 33.6592,6.756505 52.8937,7.831613 6.4634,0.361262 23.16,0.362321 29.6104,0.0026 15.3476,-0.857647 29.8037,-2.919042 41.9594,-5.983287 1.9646,-0.495221 3.7035,-0.901171 3.8644,-0.90215 0.7361,-0.0045 3.8631,18.148352 4.6031,26.721169 0.157,1.81901 0.3386,3.56026 0.4036,3.869452 0.1029,0.489294 -0.1301,0.649922 -1.7967,1.238858 -12.1717,4.30112 -27.7672,7.222728 -45.5712,8.537125 -6.2685,0.462783 -24.1829,0.691356 -30.1088,0.384149 z"
         id="path1865" />
      <path
         style="fill:#000000;stroke-width:0.264583"
         d="m -1567.3515,90.214379 c -3.9388,-0.554328 -8.1019,-1.892934 -12.0363,-3.870192 -2.7268,-1.370383 -11.3387,-7.234528 -15.5387,-10.580899 -4.1719,-3.323881 -12.2088,-11.254633 -15.2511,-15.049552 -2.7073,-3.377115 -5.2302,-6.873689 -6.9907,-9.688723 -0.7627,-1.21965 -1.5509,-2.470124 -1.7515,-2.77884 -0.3569,-0.549301 -0.2954,-0.54475 2.8846,0.214075 26.9125,6.42194 60.6458,8.232774 90.0326,4.833037 4.5675,-0.528399 11.43,-1.599459 15.3161,-2.390404 1.7299,-0.352108 3.1893,-0.640186 3.2433,-0.640186 0.1604,0 -2.2833,3.651223 -4.2499,6.35 -5.3694,7.36846 -13.2191,15.271775 -20.9241,21.066997 -4.3855,3.298586 -11.4722,7.901675 -14.0229,9.108519 -2.9351,1.388718 -5.8207,2.360586 -9.0035,3.032416 -2.4455,0.516202 -9.219,0.744008 -11.7079,0.393752 z"
         id="path1863" />
      <path
         style="fill:#000000;stroke-width:0.264583"
         d="m -1508.9227,353.98347 c -3.0812,-0.54374 -4.8393,-2.3867 -5.3293,-5.58623 -0.2954,-1.92905 -3.532,-185.24721 -3.3147,-187.74411 0.2605,-2.99445 1.5431,-4.90657 3.871,-5.77107 1.507,-0.55964 9.2297,-0.83457 26.7192,-0.9512 l 12.5677,-0.0838 1.2704,0.63088 c 0.6987,0.34697 1.572,1.02621 1.9405,1.50942 1.5323,2.00885 1.3403,-3.78688 3.0179,91.12533 1.8071,102.23404 1.7899,100.76875 1.1965,102.38998 -0.8657,2.36511 -2.6892,3.58759 -5.9093,3.96174 -1.1248,0.13068 -7.7602,0.3071 -14.7452,0.39203 -6.985,0.0849 -14.3073,0.20548 -16.2719,0.26787 -1.9645,0.0624 -4.2203,0 -5.0128,-0.14084 z"
         id="path1861" />
      <path
         style="fill:#000000;stroke-width:0.264583"
         d="m -1636.3338,356.22179 c -3.5001,-0.86286 -4.7959,-2.53232 -5.1965,-6.69541 -0.1342,-1.39343 -0.9513,-43.98348 -1.816,-94.6446 -1.7068,-100.00268 -1.6941,-93.56124 -0.1898,-95.83436 0.934,-1.41142 2.5102,-2.12172 5.3897,-2.4289 3.6449,-0.38886 34.0814,-0.79655 35.8115,-0.47971 4.0142,0.73514 5.2438,2.69142 5.4612,8.68846 0.071,1.96453 0.8329,44.30842 1.6926,94.09755 1.4198,82.22914 1.5264,90.6667 1.1622,92.06468 -0.5363,2.05922 -1.4587,3.19757 -3.2583,4.02148 -1.4314,0.65532 -1.7214,0.6845 -8.6272,0.86818 -10.3757,0.27593 -29.8122,0.49479 -30.4294,0.34263 z"
         id="path1859" />
      <path
         style="fill:#000000;stroke-width:0.264583"
         d="m -1352.5303,600.72988 c -1.3698,-0.4273 -2.2647,-1.20671 -3.0402,-2.64771 l -0.5696,-1.05833 -0.069,-50.98881 -0.07,-50.9888 -16.2024,-0.0758 c -15.8612,-0.0742 -16.2275,-0.0875 -17.3931,-0.63516 -1.4817,-0.69614 -2.2326,-1.49974 -2.8219,-3.02003 -0.4073,-1.05074 -0.4698,-2.63078 -0.5582,-14.12491 -0.064,-8.32628 0,-13.69664 0.1852,-15.05826 0.3521,-2.61665 1.1328,-4.04273 2.706,-4.94337 l 1.1504,-0.65863 h 56.377 56.377 l 1.2782,0.79375 c 2.7265,1.69315 2.8311,2.43568 2.7304,19.3902 -0.079,13.28886 -0.097,13.71698 -0.6407,14.87334 -0.6638,1.41288 -1.4503,2.1852 -2.8838,2.83165 -0.972,0.43829 -2.3274,0.4816 -17.2605,0.55142 l -16.2057,0.0758 v 50.47776 c 0,55.67373 0.1047,52.24502 -1.6474,53.94319 -1.7505,1.6967 -1.2581,1.65952 -21.7354,1.64 -14.8568,-0.0143 -18.7834,-0.0893 -19.7064,-0.3773 z"
         id="path1857" />
      <path
         style="fill:#000000;stroke-width:0.264583"
         d="m -1484.7123,600.73388 c -1.5761,-0.56677 -2.3295,-1.22341 -3.058,-2.66518 l -0.6614,-1.30916 -0.069,-50.86614 -0.069,-50.86614 -15.5416,-0.006 c -9.635,-0.004 -15.9941,-0.10952 -16.7322,-0.2776 -1.6694,-0.38013 -3.0615,-1.37579 -3.7651,-2.6928 l -0.6005,-1.12419 -0.075,-14.7888 c -0.083,-16.43121 -0.08,-16.46309 1.6292,-18.11986 1.781,-1.72628 -2.0828,-1.61962 58.6141,-1.61798 36.1558,0 55.5198,0.0932 56.1469,0.26733 1.5276,0.42434 2.6643,1.35128 3.3927,2.76673 l 0.6772,1.31574 v 14.82384 14.82383 l -0.7407,1.50829 c -0.6472,1.31789 -0.9311,1.60178 -2.2489,2.24896 l -1.5083,0.74067 -16.2031,0.0758 -16.2031,0.0758 -0.069,51.1211 -0.069,51.12109 -0.6586,1.15044 c -0.4057,0.70869 -1.1169,1.41983 -1.8521,1.85208 l -1.1934,0.70165 -19.05,0.0581 c -15.8822,0.0484 -19.2235,-0.004 -20.0931,-0.31705 z"
         id="path1855" />
      <path
         style="fill:#000000;stroke-width:0.264583"
         d="m -1832.1102,600.73411 c -1.5763,-0.56718 -2.3296,-1.22375 -3.058,-2.66541 l -0.6615,-1.30916 -0.071,-67.20416 c -0.049,-46.5033 0.015,-67.61165 0.2087,-68.52708 0.3754,-1.77456 1.3443,-3.16934 2.7071,-3.89737 l 1.1242,-0.60055 18.6277,-0.0731 c 20.6283,-0.0809 20.3173,-0.1031 22.5614,1.60851 0.6269,0.47818 1.5693,1.43754 2.0941,2.13194 0.5248,0.69442 5.2883,9.12534 10.5855,18.73541 5.2972,9.61006 10.0642,17.96629 10.5933,18.56941 l 0.9619,1.09656 h 2.0449 2.0448 l 0.962,-1.08881 c 0.529,-0.59886 5.1744,-8.81417 10.323,-18.25625 5.1486,-9.44211 9.7827,-17.80596 10.2981,-18.58634 0.5154,-0.78039 1.5222,-1.88138 2.2373,-2.44663 2.3875,-1.88725 1.8468,-1.8455 22.8433,-1.76374 l 18.7602,0.073 1.0995,0.58793 c 1.3983,0.74772 2.1066,1.65394 2.6052,3.33293 0.3475,1.1701 0.3964,9.58845 0.3964,68.31039 0,58.72194 -0.049,67.14029 -0.3964,68.31039 -0.4986,1.67899 -1.2069,2.58521 -2.6052,3.33293 l -1.0995,0.58793 -18.1004,0.0733 c -20.081,0.0813 -19.7413,0.1071 -21.4228,-1.62777 -1.6994,-1.75334 -1.6195,0.20931 -1.6195,-39.76253 0,-21.01065 -0.099,-36.33817 -0.2351,-36.33817 -0.1293,0 -3.0761,5.26293 -6.5484,11.69543 -5.5726,10.32309 -6.4996,11.88614 -7.9009,13.32066 -1.1472,1.17446 -2.0278,1.80165 -3.175,2.26134 -1.5419,0.61786 -1.7963,0.63611 -8.8635,0.63611 -8.2384,0 -9.0046,-0.13398 -11.3448,-1.98382 -1.7843,-1.41039 -2.5495,-2.65832 -9.2927,-15.15501 l -5.9531,-11.03255 -0.1323,36.70755 -0.1323,36.70758 -0.7473,1.5217 c -0.5796,1.18044 -1.0247,1.68481 -1.9843,2.24896 l -1.2372,0.72726 -17.727,0.0583 c -14.7466,0.0485 -17.9025,-0.005 -18.7702,-0.31703 z"
         id="path1853" />
      <path
         style="fill:#000000;stroke-width:0.264583"
         d="m -1622.8165,619.08556 c -1.5774,-0.37002 -2.7315,-1.21036 -3.5316,-2.57143 l -0.7253,-1.23376 -0.085,-7.07739 c -0.085,-7.02566 -0.09,-7.07821 -0.6615,-7.19354 -0.3168,-0.0639 -2.4215,-0.4753 -4.6771,-0.91422 -9.4854,-1.84586 -16.3057,-4.51434 -21.6322,-8.46375 -5.7,-4.22632 -9.9872,-11.69247 -12.0202,-20.93338 l -0.6112,-2.77813 v -39.81979 c 0,-37.50209 0.028,-39.98039 0.4873,-42.57884 2.1677,-12.27518 7.8195,-19.81999 18.7296,-25.00275 10.9275,-5.19105 27.1387,-7.67847 46.929,-7.20074 13.0547,0.31512 21.6692,1.39565 29.9036,3.75081 18.3872,5.25902 26.8608,14.91758 28.4272,32.40236 0.3782,4.22177 0.3713,73.52773 -0.01,77.41081 -1.3706,14.0423 -6.8663,22.3213 -18.7847,28.29864 -4.7016,2.35794 -10.0654,4.02838 -16.5197,5.14466 -1.7462,0.30202 -3.4357,0.60605 -3.7543,0.67561 -0.5755,0.12565 -0.5798,0.17217 -0.6614,7.07078 -0.079,6.68705 -0.1054,6.99148 -0.7096,8.21851 -0.7187,1.45992 -1.9798,2.40695 -3.7382,2.80734 -1.5038,0.34242 -34.8927,0.33158 -36.3566,-0.0119 z"
         id="path1849" />
      <path
         style="fill:#fdbe36;fill-opacity:1;stroke-width:0.264583"
         d="M -1165.3095,558.72577 -996.17448,389.59096 V 150.27535 -89.040264 L -1165.3093,-258.17523 -1334.4441,-427.3102 h -239.3156 -239.3156 l -169.135,169.13481 -169.135,169.134808 V 150.14274 389.32606 l 169.2671,169.26726 169.2671,169.26726 h 239.1834 239.1833 z"
         id="path1847" />
      <path
         style="fill:#ffffff;stroke:#ffffff;stroke-width:0.264583"
         d="m -1541.0838,-69.196912 c 14.6712,-0.911834 24.2959,-2.270098 35.9172,-5.068834 3.0098,-0.724826 4.9609,-1.319266 4.9609,-1.511433 0,-0.451299 -2.5968,-8.10252 -4.2131,-12.413349 -2.355,-6.281314 -7.1082,-17.390872 -7.7138,-18.029342 -0.1436,-0.15142 -0.8717,-0.12364 -1.8923,0.0722 -12.7557,2.44777 -24.5157,3.87665 -37.3777,4.54152 -6.55,0.33856 -22.7474,0.33517 -28.9719,-0.006 -9.6961,-0.5316 -21.5238,-1.75818 -29.1041,-3.01823 -1.2369,-0.20561 -2.3424,-0.28421 -2.4566,-0.17468 -1.1266,1.08061 -11.17,26.964879 -10.6604,27.474493 0.4139,0.413914 11.379,3.008075 17.4826,4.136099 11.5954,2.14294 26.3722,3.810847 37.3063,4.210844 6.8827,0.251777 21.0614,0.138668 26.7229,-0.213202 z"
         id="path1492" />
      <path
         style="fill:#ffffff;stroke-width:0.264583"
         d="m -1536.7007,34.777533 c 15.302,-1.112864 27.6959,-3.220985 38.0825,-6.477635 l 3.3073,-1.036981 0.8567,-2.853743 c 1.6574,-5.520478 3.0917,-11.985571 3.8912,-17.538143 0.4957,-3.442864 1.2052,-10.7692555 1.2052,-12.4450736 v -1.247589 l -3.1088,0.905086 c -38.7189,11.2723079 -94.693,10.4546131 -136.5626,-1.994932 l -3.5433,-1.05357 0.1786,3.353964 c 0.4289,8.051905 1.7001,16.5962266 3.6285,24.3883636 1.5996,6.464009 1.0413,5.771621 5.8255,7.224209 17.534,5.323708 38.1052,8.491934 60.2925,9.28587 5.0428,0.180445 20.68,-0.126815 25.9467,-0.509826 z"
         id="path1486" />
      <path
         style="fill:#000000;stroke-width:0.264583"
         d="m -1767.4349,-42.871242 c 14.6772,-0.883285 27.6756,-2.594451 39.423,-5.189828 17.643,-3.897895 29.0858,-8.28085 36.3752,-13.932826 10.2788,-7.969805 33.1271,-27.774263 47.3524,-41.043994 6.2013,-5.78474 19.9539,-19.61202 23.9612,-24.09137 1.8171,-2.03118 3.7222,-4.15327 4.2335,-4.71577 l 0.9296,-1.02277 2.2454,4.45119 2.2454,4.45119 1.5875,0.31739 c 2.2356,0.44699 10.4196,1.57647 14.8166,2.04489 19.9443,2.12463 41.744,1.98048 60.9865,-0.40325 8.4846,-1.05106 20.2265,-3.22099 20.4749,-3.78376 2.3892,-5.41345 3.0232,-6.81246 3.1067,-6.85503 0.055,-0.0283 1.2315,1.19687 2.6133,2.72261 15.2985,16.89222 36.9102,36.940491 65.7478,60.991405 9.3905,7.831825 10.8197,8.823113 16.098,11.165708 19.804,8.789378 53.8829,14.388781 83.6499,13.744283 41.1268,-0.890455 71.4466,-12.0133 87.4573,-32.08377 3.6315,-4.552262 7.0811,-10.639981 9.0896,-16.040682 1.6492,-4.434864 1.8655,-5.667244 1.846,-10.520834 -0.016,-3.93989 -0.087,-4.59785 -0.728,-6.74688 -1.4087,-4.72091 -3.636,-8.65761 -7.3625,-13.01295 -14.4645,-16.90502 -45.8935,-31.88956 -99.4305,-47.40595 -21.2059,-6.14598 -51.0732,-13.59336 -92.4719,-23.05774 -34.0869,-7.79278 -60.5541,-14.28271 -61.2999,-15.03114 -0.1,-0.1 -1.1971,-2.23266 -2.4387,-4.73927 -3.1988,-6.45729 -6.2329,-11.4146 -7.9333,-12.96178 l -1.3847,-1.25997 0.9789,-2.78122 c 3.6715,-10.43086 4.1818,-22.06964 1.4446,-32.94372 -3.6966,-14.68516 -13.3344,-27.191 -26.0999,-33.86667 l -2.0238,-1.05833 6.8704,-23.94479 c 3.7787,-13.16963 6.8895,-23.95608 6.9128,-23.96988 0.023,-0.0138 9.0911,-0.35183 20.1507,-0.75119 13.3745,-0.48295 20.3298,-0.82997 20.7698,-1.03625 0.3638,-0.17058 0.8996,-0.75528 1.1906,-1.29933 l 0.5292,-0.98918 -0.5292,-0.99108 c -0.3692,-0.69143 -0.8091,-1.08063 -1.4552,-1.28731 -0.7071,-0.22618 -5.7754,-0.1168 -21.4313,0.4625 -11.2778,0.41731 -20.8832,0.82173 -21.3452,0.89872 -0.4621,0.077 -1.09,0.40413 -1.3954,0.727 -0.3054,0.32288 -5.7837,11.30267 -12.174,24.39954 l -11.6188,23.8125 -1.9348,-0.13229 c -1.0642,-0.0728 -2.9469,-0.13229 -4.1838,-0.13229 -1.237,0 -3.0754,0.0595 -4.0854,0.13229 l -1.8365,0.13229 -11.6573,-23.87871 c -6.4115,-13.13329 -11.9227,-24.14077 -12.2471,-24.46107 -0.7239,-0.7148 1.0627,-0.60001 -23.6196,-1.51753 -21.1832,-0.78745 -20.8556,-0.79562 -21.7935,0.54344 -0.6504,0.92849 -0.5334,1.96334 0.3313,2.93107 0.9163,1.02549 -1.6256,0.8314 23.0497,1.76 l 18.6532,0.70197 6.6709,23.15104 c 3.6691,12.73307 6.7468,23.53053 6.8394,23.99435 0.1644,0.82358 0.126,0.86471 -1.6439,1.75855 -11.2985,5.70601 -20.7759,17.07263 -25.0756,30.07418 -2.0651,6.2442 -2.7926,10.98546 -2.796,18.22229 0,6.72884 0.9524,12.38939 3.1285,18.53339 l 0.9764,2.75672 -1.3698,1.2955 c -1.9775,1.87021 -5.9585,8.80198 -8.934,15.55613 l -1.2274,2.78587 -3.2332,0.88694 c -13.7729,3.77812 -27.3683,7.09967 -55.8853,13.65353 -48.0241,11.03704 -73.2494,17.26427 -94.9855,23.44851 -54.8167,15.59621 -87.5393,30.97792 -102.3924,48.13091 -3.7295,4.30694 -6.0633,8.41886 -7.4257,13.08333 -0.9383,3.2123 -1.175,8.45529 -0.5349,11.84669 1.6314,8.643566 7.6393,19.119293 15.3599,26.782473 15.8806,15.762498 42.0967,24.925653 76.34,26.682645 3.9236,0.201322 19.6945,0.139277 23.5479,-0.09263 z"
         id="path1490" />
      <path
         style="fill:#000000;stroke-width:0.264583"
         d="m -1539.4814,-18.662371 c 17.5837,-1.152816 31.5252,-3.585633 45.0304,-7.857939 3.3208,-1.050529 4.2995,-1.46177 4.2995,-1.806681 0,-0.945647 -0.8276,-8.636714 -1.323,-12.295028 -0.7565,-5.586518 -3.1794,-18.480801 -3.5404,-18.841878 -0.055,-0.05482 -1.4536,0.260297 -3.1083,0.70022 -27.1883,7.228575 -65.9233,8.615944 -99.7138,3.571425 -9.0108,-1.345195 -20.0249,-3.565049 -26.5308,-5.34715 -1.5679,-0.429472 -2.8944,-0.707575 -2.9478,-0.618014 -0.472,0.791184 -2.981,13.617019 -3.836,19.609699 -0.4721,3.30827 -1.3458,10.704909 -1.3458,11.392958 0,0.691303 15.7176,5.115824 24.7386,6.963939 10.8597,2.224801 28.0396,4.312999 39.026,4.743529 6.8194,0.267229 23.7989,0.142398 29.2514,-0.21508 z"
         id="path1488" />
      <path
         style="fill:#000000;stroke-width:0.264583"
         d="m -1555.8333,89.975461 c 7.0007,-1.357101 13.0488,-4.525857 23.2161,-12.163689 7.2886,-5.475208 14.8725,-12.964265 20.1256,-19.873753 1.5973,-2.100871 5.4274,-7.742793 5.3256,-7.844657 -0.041,-0.04064 -0.8427,0.105727 -1.7823,0.325252 -4.2057,0.982583 -13.5018,2.395987 -20.6262,3.136027 -16.7685,1.741884 -36.6452,1.743419 -54.1072,0.0042 -11.2596,-1.121463 -23.1805,-3.051916 -32.5178,-5.265922 -1.5864,-0.376159 -2.9401,-0.628253 -3.0081,-0.560229 -0.068,0.06805 0.5718,1.230683 1.4219,2.58363 6.3926,10.173784 14.4806,19.093919 24.0801,26.557497 4.2583,3.310811 11.7904,8.33673 14.6159,9.752674 2.9712,1.488942 7.0997,2.906924 9.9745,3.425904 3.2173,0.580787 10.0944,0.540967 13.2819,-0.07691 z"
         id="path1484" />
      <path
         style="fill:#000000;stroke-width:0.264583"
         d="m -1477.3192,353.75635 c 5.2455,-0.17396 5.9587,-0.25318 7.216,-0.80147 2.3135,-1.00897 3.4306,-2.78302 3.6707,-5.8297 0.2254,-2.85895 -3.0218,-185.67754 -3.3334,-187.67294 -0.5699,-3.65027 -2.2565,-5.28738 -5.8952,-5.72249 -0.8343,-0.0998 -9.3473,-0.0387 -18.9177,0.13568 -18.8043,0.34263 -18.9226,0.35298 -20.8548,1.82673 -1.2355,0.94234 -1.9696,2.47952 -2.1958,4.59767 -0.2676,2.50497 3.0287,188.08021 3.3596,189.14487 0.4716,1.51691 1.4541,2.99463 2.3658,3.55809 2.056,1.27066 2.2505,1.28426 15.9316,1.11519 7.0578,-0.0872 15.4517,-0.24548 18.6532,-0.35163 z"
         id="path1482" />
      <path
         style="fill:#000000;stroke-width:0.264583"
         d="m -1612.2567,356.1239 c 6.985,-0.13449 13.1581,-0.35886 13.7182,-0.49858 1.7975,-0.44853 3.3777,-1.62796 4.1213,-3.07618 0.6293,-1.22566 0.6851,-1.62441 0.7587,-5.42396 0.044,-2.25557 -0.6377,-44.87995 -1.5144,-94.72083 -1.778,-101.07929 -1.4562,-92.52426 -3.5599,-94.62796 -0.7989,-0.79893 -1.5364,-1.22907 -2.6827,-1.56474 -1.4839,-0.43453 -2.6757,-0.4439 -19.4402,-0.15288 -18.9934,0.3297 -19.6979,0.38431 -21.5812,1.6733 -0.4925,0.33711 -1.2239,1.20822 -1.6253,1.93583 -0.6942,1.25838 -0.734,1.52299 -0.8152,5.42396 -0.047,2.25557 0.6329,44.88145 1.5109,94.72416 1.3235,75.13888 1.662,90.84166 1.9812,91.90222 0.8762,2.91163 2.5601,4.2613 5.7589,4.61605 1.7536,0.1945 2.853,0.18458 23.3697,-0.21039 z"
         id="path1480" />
      <path
         style="fill:#000000;stroke-width:0.264583"
         d="m -1312.4856,600.596 c 1.7074,-0.85484 2.706,-2.28592 3.0463,-4.36562 0.1633,-0.99833 0.2603,-20.07294 0.2612,-51.39531 v -49.80781 l 15.8089,-0.003 c 9.7742,0 16.1742,-0.10295 16.766,-0.26733 1.4669,-0.40749 2.6794,-1.35081 3.4084,-2.65184 l 0.6615,-1.18039 0.077,-14.6463 c 0.084,-16.02256 0.042,-16.55162 -1.4328,-18.12914 -0.3913,-0.41847 -1.2583,-1.01378 -1.9266,-1.32292 l -1.2153,-0.56205 h -55.6948 c -45.7917,0 -55.8724,0.0628 -56.6936,0.35345 -1.3412,0.47459 -2.473,1.46712 -3.1799,2.78868 -0.5823,1.08858 -0.5837,1.12737 -0.5837,16.17941 v 15.08818 l 0.6759,1.31363 c 0.4801,0.93292 1.049,1.54429 1.9633,2.10971 l 1.2874,0.7961 16.3532,0.0757 16.3532,0.0757 0.072,50.7243 0.072,50.72431 0.6937,1.47915 c 0.8421,1.79573 2.0917,2.73066 4.3334,3.2421 0.2911,0.0664 8.8636,0.10284 19.05,0.081 l 18.5209,-0.0398 1.3211,-0.66145 z"
         id="path1478" />
      <path
         style="fill:#000000;stroke-width:0.264583"
         d="m -1444.8991,600.70242 c 0.6597,-0.30528 1.52,-0.93599 1.9118,-1.40161 1.6066,-1.90942 1.5191,1.19685 1.5191,-53.91845 v -50.3551 l 15.8088,-0.003 c 9.7743,0 16.1743,-0.10295 16.7661,-0.26733 1.4669,-0.40749 2.6794,-1.35081 3.4084,-2.65184 l 0.6615,-1.18039 v -15.2205 -15.22047 l -0.6768,-1.31525 c -0.5583,-1.08489 -0.9489,-1.45441 -2.2302,-2.10973 l -1.5535,-0.79446 h -55.7135 c -60.639,0 -56.815,-0.0976 -58.6295,1.49555 -1.856,1.62965 -1.8465,1.5366 -1.8465,18.08361 0,16.39136 -0.061,15.77359 1.7257,17.55995 1.5973,1.59731 1.8937,1.62234 19.2244,1.62234 h 15.6947 l 0.01,49.27865 c 0.01,30.29838 0.1071,50.04156 0.2651,51.25944 0.4142,3.19191 1.8202,4.90376 4.5791,5.57533 0.4599,0.11192 9.1705,0.18399 19.357,0.16015 18.2044,-0.0426 18.5413,-0.0528 19.7202,-0.59841 z"
         id="path1476" />
      <path
         style="fill:#000000;stroke-width:0.264583"
         d="m -1795.0874,600.78182 c 1.3458,-0.60696 2.1582,-1.37007 2.8736,-2.69936 l 0.5696,-1.05833 0.1323,-36.82029 0.1322,-36.82026 6.2178,11.52776 c 8.9208,16.53939 8.7652,16.40051 18.6718,16.6615 7.8924,0.20791 10.609,-0.29247 13.2249,-2.43597 1.5801,-1.29481 2.2452,-2.39326 8.8786,-14.66482 l 5.9236,-10.95835 0.1323,36.62293 c 0.1248,34.55845 0.1592,36.68258 0.6093,37.68125 0.6613,1.46687 1.6491,2.42199 3.0737,2.97185 1.1164,0.4309 2.6389,0.46773 19.3358,0.46773 h 18.1239 l 1.3229,-0.6803 c 0.9415,-0.48416 1.5518,-1.05029 2.1167,-1.96363 l 0.7937,-1.28333 v -68.54783 -68.54782 l -0.7272,-1.23714 c -0.5642,-0.95967 -1.0685,-1.40473 -2.249,-1.98437 l -1.5217,-0.74724 h -18.7854 -18.7854 l -1.5035,0.61878 c -1.6991,0.69932 -3.8686,2.78305 -5.1104,4.90852 -0.4158,0.71171 -4.8923,8.8655 -9.9477,18.11957 -5.0554,9.25407 -9.5617,17.2145 -10.014,17.68988 -0.782,0.82185 -0.9162,0.864 -2.7338,0.85842 -2.0702,-0.006 -2.5579,-0.2416 -3.5536,-1.71392 -0.2952,-0.43656 -4.6697,-8.29469 -9.721,-17.4625 -5.0513,-9.16781 -9.7232,-17.47248 -10.382,-18.45482 -1.3314,-1.9853 -2.5833,-3.0925 -4.4937,-3.9742 l -1.2778,-0.58973 h -18.7854 -18.7854 l -1.5217,0.74724 c -1.1805,0.57964 -1.6848,1.0247 -2.249,1.98437 l -0.7273,1.23714 v 68.52708 c 0,66.13133 0.017,68.55841 0.4887,69.42333 0.8656,1.58787 2.0003,2.42305 4.0093,2.95116 0.4365,0.11475 8.5328,0.18899 17.9916,0.165 15.9298,-0.0404 17.2757,-0.0787 18.2527,-0.5193 z"
         id="path1474" />
      <path
         id="path1470"
         style="fill:#000000;stroke-width:0.999999"
         d="m -6054.5156,1713.127 c -6.6016,-0.018 -13.5343,0.028 -20.8516,0.1328 -49.4872,0.709 -75.5904,3.453 -106.7012,11.2168 -60.6285,15.1299 -96.0796,42.7102 -109.9648,85.5488 -3.981,12.282 -6.8434,27.0658 -8.0215,41.4434 -1.347,16.439 -1.3398,273.9948 0,287.6445 4.4719,45.2899 23.5052,81.3198 53.5781,101.4258 19.5515,13.0715 50.2331,23.813 85.5528,29.9531 l 9.6523,1.6777 0.3477,25.6504 0.3476,25.6485 2.8242,5.7519 c 3.4829,7.0929 8.6232,10.4632 17.8536,11.7051 3.4775,0.4679 34.6723,0.762 69.3222,0.6543 57.7746,-0.1795 63.3908,-0.3445 67.7051,-1.9824 h 0.01 c 5.5646,-2.1126 11.1858,-7.9416 12.836,-13.3086 0.6965,-2.2666 1.384,-14.0916 1.6875,-29.0703 0.2796,-13.8875 0.849,-25.2501 1.2617,-25.25 0.4127,0 6.0284,-0.9168 12.4804,-2.0372 72.192,-12.5357 115.3243,-43.8183 129.9356,-94.2382 6.3795,-22.015 6.0041,-11.7078 6.3594,-174.2246 0.223,-101.2765 -6e-4,-150.6835 -0.75,-156.5 -3.3177,-26.2873 -9.3062,-44.9665 -19.3575,-60.3868 -18.85,-28.9184 -50.5131,-48.3989 -97.6582,-60.082 -32.2407,-7.9897 -62.2364,-11.2458 -108.4472,-11.373 z m -5.8906,149.25 c 11.7862,0.03 22.8571,0.4779 27.6464,1.3847 19.7311,3.7361 30.0876,12.8878 32.711,28.9043 1.2389,7.4571 1.2587,208.6034 0.039,217.0371 -1.1179,7.7293 -4.0596,13.7514 -9.4277,19.3047 -4.7456,4.9098 -9.5112,7.2725 -19.2461,9.5391 h -0.018 c -5.0131,1.1672 -13.5457,1.7031 -31.3847,1.9707 -26.538,0.3982 -36.5617,-0.5722 -47.5118,-4.5996 -7.8935,-2.9032 -15.3864,-10.3845 -18.3593,-18.3301 -2.1302,-5.6826 -2.1289,-5.8958 -2.1289,-116.1191 0,-108.5801 0.034,-110.5156 2.0332,-115.8594 4.2368,-11.3236 13.1075,-17.9821 28.4668,-21.3672 5.6893,-1.2539 22.0259,-1.9043 37.1797,-1.8652 z"
         transform="scale(0.26458333)" />
    </g>
  </g>
</svg>
